<svg xmlns="http://www.w3.org/2000/svg" viewBox="0 0 91.46 195.32"><defs><style>.cls-1{fill:#f5e8e1;}.cls-2{fill:#5b3420;}.cls-3{fill:#e24f41;}.cls-4{fill:#e6594a;}.cls-5{fill:#4e2e1e;}.cls-6{fill:#59b197;}.cls-7{fill:#4e341c;}.cls-8{fill:#edc025;stroke:#ec8249;stroke-miterlimit:10;stroke-width:3px;}.cls-9{fill:#ecc44d;}.cls-10{fill:#ec8249;}.cls-11{fill:#1f7768;}.cls-12{fill:#f0eae5;}.cls-13{fill:#ef974c;}.cls-14{fill:#fff;}.cls-15{fill:#58b0b1;}</style></defs><title>Asset 1</title><g id="Layer_2" data-name="Layer 2"><g id="Layer_1-2" data-name="Layer 1"><path class="cls-1" d="M79.38,125.35,81,122.48l-1.62,2.89L81,122.48l1.62-2.89a13.83,13.83,0,0,1,3.08,2.56l-4.43,5A8.59,8.59,0,0,0,79.38,125.35Z"/><path class="cls-1" d="M83.37,130.55l5.82-3.2a23.59,23.59,0,0,1,1.72,5.33l-6.46,1.51A17.69,17.69,0,0,0,83.37,130.55Z"/><path class="cls-2" d="M87.53,156.92l-6.18-2.4c.57-1.48,1.06-2.89,1.48-4.24l6.37,1.84C88.72,153.66,88.17,155.26,87.53,156.92Z"/><path class="cls-2" d="M81.32,127.12l4.43-5a19.84,19.84,0,0,1,3.45,5.19l-5.82,3.2A13.55,13.55,0,0,0,81.32,127.12Z"/><path class="cls-2" d="M84.45,134.18l6.46-1.51a29.17,29.17,0,0,1,.54,5l-6.62.19A22.88,22.88,0,0,0,84.45,134.18Z"/><path class="cls-1" d="M90.36,147.74c-.31,1.4-.7,2.86-1.17,4.39l-6.37-1.84c.4-1.31.74-2.55,1-3.73Z"/><path class="cls-2" d="M84.65,141.84l6.62.29a46,46,0,0,1-.91,5.61l-6.52-1.18A40.53,40.53,0,0,0,84.65,141.84Z"/><path class="cls-1" d="M84.83,137.85l6.62-.19a36.54,36.54,0,0,1-.18,4.46l-6.62-.29A30.32,30.32,0,0,0,84.83,137.85Z"/><circle class="cls-3" cx="82.41" cy="160.24" r="6.26"/><circle class="cls-4" cx="74.73" cy="119.35" r="7.34"/><rect class="cls-5" x="43.82" y="22.84" width="2.01" height="51.74"/><path class="cls-6" d="M29.67,8.72a1.11,1.11,0,0,1-.16-1.56h0A19.31,19.31,0,0,1,44.52,0h0A19.27,19.27,0,0,1,57.66,5.16h0a1.11,1.11,0,0,1,.06,1.57h0a1.11,1.11,0,0,1-1.57.06h0A17,17,0,0,0,44.52,2.22h0A17.08,17.08,0,0,0,31.23,8.56h0a1.11,1.11,0,0,1-.86.41h0a1.1,1.1,0,0,1-.7-.25Z"/><path class="cls-6" d="M32.65,11.28a1.11,1.11,0,0,1-.17-1.56h0a15.4,15.4,0,0,1,12-5.81h0A15.38,15.38,0,0,1,55,8.06h0a1.11,1.11,0,0,1,.05,1.57h0a1.11,1.11,0,0,1-1.57.06h0a13.15,13.15,0,0,0-9-3.55h0a13.17,13.17,0,0,0-10.31,5h0a1.11,1.11,0,0,1-.87.42h0a1.1,1.1,0,0,1-.69-.24Z"/><path class="cls-6" d="M35.69,13.75a1.11,1.11,0,0,1-.18-1.56h0a11.49,11.49,0,0,1,9-4.36h0a11.46,11.46,0,0,1,8,3.23h0a1.11,1.11,0,0,1,0,1.57h0a1.11,1.11,0,0,1-1.57,0h0a9.25,9.25,0,0,0-6.44-2.6h0a9.27,9.27,0,0,0-7.27,3.52h0a1.11,1.11,0,0,1-.87.42h0a1.11,1.11,0,0,1-.69-.24Z"/><circle class="cls-5" cx="44.52" cy="19.34" r="6.48"/><polygon class="cls-7" points="37.46 149.21 37.46 152.34 37.46 152.52 37.46 155.56 37.46 155.65 37.46 158.69 37.46 158.88 37.46 161.91 37.46 162.01 37.46 165.04 37.46 165.23 37.46 168.36 49.98 168.36 49.98 165.23 49.98 165.04 49.98 162.01 49.98 161.91 49.98 158.88 49.98 158.69 49.98 155.65 49.98 155.56 49.98 152.52 49.98 152.34 49.98 149.21 37.46 149.21"/><path class="cls-8" d="M86,181.76a12.06,12.06,0,0,1-12.06,12.06H16.05A12.06,12.06,0,0,1,4,181.76H4A12.06,12.06,0,0,1,16.05,169.7H73.92A12.06,12.06,0,0,1,86,181.76Z"/><path class="cls-9" d="M44.6,35.14A31.44,31.44,0,0,0,13.16,66.58V99.26H76V66.58A31.44,31.44,0,0,0,44.6,35.14Z"/><rect class="cls-10" x="10.95" y="97.56" width="67.21" height="10.86" rx="4.42" ry="4.42"/><path class="cls-1" d="M12.08,125.35l-1.66-2.87L12,125.37l-1.62-2.89L8.8,119.59a13.83,13.83,0,0,0-3.08,2.56l4.43,5A8.59,8.59,0,0,1,12.08,125.35Z"/><path class="cls-1" d="M8.09,130.55l-5.82-3.2a23.6,23.6,0,0,0-1.72,5.33L7,134.18A17.68,17.68,0,0,1,8.09,130.55Z"/><path class="cls-2" d="M3.93,156.92l6.18-2.4c-.57-1.48-1.06-2.89-1.48-4.24l-6.37,1.84C2.74,153.66,3.29,155.26,3.93,156.92Z"/><path class="cls-2" d="M10.15,127.12l-4.43-5a19.84,19.84,0,0,0-3.45,5.19l5.82,3.2A13.55,13.55,0,0,1,10.15,127.12Z"/><path class="cls-2" d="M7,134.18.55,132.67a29.18,29.18,0,0,0-.54,5l6.62.19A22.88,22.88,0,0,1,7,134.18Z"/><path class="cls-1" d="M1.1,147.74c.31,1.4.7,2.86,1.17,4.39l6.37-1.84c-.4-1.31-.74-2.55-1-3.73Z"/><path class="cls-2" d="M6.81,141.84l-6.62.29a45.93,45.93,0,0,0,.91,5.61l6.52-1.18A40.53,40.53,0,0,1,6.81,141.84Z"/><path class="cls-1" d="M6.63,137.85,0,137.66a36.49,36.49,0,0,0,.18,4.46l6.62-.29A30.31,30.31,0,0,1,6.63,137.85Z"/><circle class="cls-3" cx="9.05" cy="160.24" r="6.26"/><circle class="cls-4" cx="16.73" cy="119.35" r="7.34"/><path class="cls-11" d="M19.23,112.38a1.1,1.1,0,0,1,1.1-1.11H68.95a1.1,1.1,0,0,1,1.1,1.11l6.63,35.91a1.1,1.1,0,0,1-1.11,1.1H13.71a1.1,1.1,0,0,1-1.1-1.1Z"/><path class="cls-12" d="M50.88,40.58s14.88,6,15.85,20.78-.41,19.72,3.36,19.25,2.2-6.29,2.2-10.56-.7-12.25-2.88-16.3C67.12,49.51,63.72,41.82,50.88,40.58Z"/><ellipse class="cls-12" cx="69.13" cy="86.9" rx="1.85" ry="2.1"/><circle class="cls-13" cx="44.46" cy="65.23" r="19.06"/><circle class="cls-12" cx="44.46" cy="65.23" r="11.09"/><circle class="cls-7" cx="44.46" cy="65.23" r="6.54"/><circle class="cls-7" cx="30.61" cy="89.72" r="2.87"/><circle class="cls-7" cx="37.98" cy="89.72" r="2.87"/><circle class="cls-7" cx="45.36" cy="89.72" r="2.87"/><circle class="cls-7" cx="52.73" cy="89.72" r="2.87"/><circle class="cls-7" cx="60.1" cy="89.72" r="2.87"/><path class="cls-13" d="M53,123.72l.4.1a.25.25,0,0,0,.29-.22c0-.17.07-.33.09-.5a.26.26,0,0,0-.22-.3l-.41,0a.5.5,0,0,1,0-1l.41,0a.25.25,0,0,0,.22-.3c0-.17,0-.33-.06-.5a.27.27,0,0,0-.3-.23l-.4.09a.5.5,0,0,1-.27-.94l.39-.14a.25.25,0,0,0,.12-.35,4.17,4.17,0,0,0-.21-.46.26.26,0,0,0-.35-.13l-.36.2a.5.5,0,0,1-.53-.82l.32-.25a.26.26,0,0,0,0-.37,4,4,0,0,0-.33-.37.26.26,0,0,0-.37,0l-.28.29a.5.5,0,0,1-.75-.62l.24-.33a.26.26,0,0,0-.1-.36,3.28,3.28,0,0,0-.43-.26.26.26,0,0,0-.36.08l-.18.37a.5.5,0,0,1-.9-.37l.13-.39a.26.26,0,0,0-.2-.31,3,3,0,0,0-.49-.12.26.26,0,0,0-.32.18l-.07.4a.5.5,0,0,1-1-.09v-.41a.26.26,0,0,0-.28-.24,3.71,3.71,0,0,0-.5,0,.26.26,0,0,0-.25.27l.05.41a.5.5,0,0,1-1,.2l-.11-.39a.26.26,0,0,0-.34-.15,3.79,3.79,0,0,0-.47.17.26.26,0,0,0-.16.33l.17.38a.5.5,0,0,1-.85.47l-.23-.34a.26.26,0,0,0-.37,0,4.75,4.75,0,0,0-.4.31.25.25,0,0,0-.06.36l.28.31a.5.5,0,0,1-.68.7l-.31-.26a.26.26,0,0,0-.37.06c-.1.13-.19.28-.29.41a.25.25,0,0,0,.05.36l.35.21a.5.5,0,0,1-.44.87l-.38-.16a.27.27,0,0,0-.34.17c-.06.16-.1.32-.15.48a.25.25,0,0,0,.15.33l.4.1a.5.5,0,0,1-.16,1l-.41,0a.27.27,0,0,0-.27.26c0,.17,0,.34,0,.51a.25.25,0,0,0,.25.27l.41,0a.5.5,0,0,1,.13,1l-.4.08a.27.27,0,0,0-.18.33c0,.16.1.32.14.48a.25.25,0,0,0,.32.19l.39-.15a.5.5,0,0,1,.41.89l-.36.2a.27.27,0,0,0-.08.37l.28.42a.25.25,0,0,0,.36.08l.33-.25a.5.5,0,0,1,.65.73l-.29.3a.26.26,0,0,0,0,.37l.39.32a.26.26,0,0,0,.37,0l.24-.34a.5.5,0,0,1,.83.51l-.18.37a.25.25,0,0,0,.15.34l.46.19a.26.26,0,0,0,.35-.14l.13-.39c.07-.22.23-.36.35-.32l.22.06.22,0c.12,0,.19.22.16.45l-.07.4a.26.26,0,0,0,.24.28l.5,0a.25.25,0,0,0,.29-.23s0-.18,0-.41a.5.5,0,0,1,1-.06l.05.41a.26.26,0,0,0,.31.2l.49-.1a.26.26,0,0,0,.21-.31l-.11-.39a.5.5,0,0,1,.91-.34l.17.38a.25.25,0,0,0,.36.09l.44-.24a.27.27,0,0,0,.11-.36l-.23-.34a.5.5,0,0,1,.78-.59l.28.31a.25.25,0,0,0,.37,0c.12-.12.24-.23.35-.36a.27.27,0,0,0,0-.37l-.31-.26a.5.5,0,0,1,.57-.79l.35.21a.25.25,0,0,0,.35-.12c.08-.15.17-.29.23-.45a.26.26,0,0,0-.11-.36l-.38-.16a.5.5,0,0,1,.31-.92ZM51.31,123l-3.15-.78a1.44,1.44,0,0,0-.86-1.43l.78-3.15A4.67,4.67,0,0,1,51.31,123Zm-3.7-5.48-.78,3.15a1.45,1.45,0,0,0-1.43.86l-3.15-.78A4.68,4.68,0,0,1,47.6,117.54Zm-5.48,3.7,3.15.78a1.45,1.45,0,0,0,.86,1.43l-.78,3.15A4.68,4.68,0,0,1,42.13,121.24Zm3.7,5.47.78-3.15a1.44,1.44,0,0,0,1.43-.86l3.15.78A4.68,4.68,0,0,1,45.83,126.72Z"/><path class="cls-14" d="M60.83,132.84l.31.08a.19.19,0,0,0,.23-.17c0-.13.05-.25.07-.38a.2.2,0,0,0-.17-.24l-.31,0a.36.36,0,0,1-.29-.38.36.36,0,0,1,.31-.37l.32,0a.2.2,0,0,0,.17-.23c0-.13,0-.26,0-.39a.2.2,0,0,0-.23-.18l-.31.06a.38.38,0,0,1-.21-.72l.3-.11a.19.19,0,0,0,.09-.27,3.42,3.42,0,0,0-.16-.35.2.2,0,0,0-.27-.1l-.28.15a.38.38,0,0,1-.41-.63l.25-.19a.2.2,0,0,0,0-.29,2.68,2.68,0,0,0-.26-.29.2.2,0,0,0-.28,0l-.22.23a.39.39,0,0,1-.58-.48l.18-.26A.2.2,0,0,0,59,127a2.73,2.73,0,0,0-.33-.2.2.2,0,0,0-.28.06l-.14.28a.39.39,0,0,1-.7-.29l.1-.3a.2.2,0,0,0-.15-.24,2.49,2.49,0,0,0-.38-.09.2.2,0,0,0-.25.14l-.05.31a.39.39,0,0,1-.75-.07v-.32a.2.2,0,0,0-.22-.19,2.4,2.4,0,0,0-.39,0,.2.2,0,0,0-.2.21l0,.31A.36.36,0,0,1,55,127a.35.35,0,0,1-.43-.22l-.09-.31a.2.2,0,0,0-.26-.11,2.92,2.92,0,0,0-.36.14.2.2,0,0,0-.12.26l.13.29a.38.38,0,0,1-.66.36l-.17-.26a.2.2,0,0,0-.29,0,3.74,3.74,0,0,0-.31.24.19.19,0,0,0,0,.28l.21.24a.39.39,0,0,1-.52.54l-.24-.2a.21.21,0,0,0-.29,0c-.08.1-.15.21-.22.32a.19.19,0,0,0,0,.28l.27.17a.39.39,0,0,1-.34.67l-.29-.12a.21.21,0,0,0-.26.13c0,.12-.08.24-.12.37a.19.19,0,0,0,.12.26l.31.08a.38.38,0,0,1-.12.74l-.32,0a.2.2,0,0,0-.21.2c0,.13,0,.26,0,.39a.2.2,0,0,0,.19.21l.32,0a.39.39,0,0,1,.1.75l-.31.06a.2.2,0,0,0-.14.25c0,.13.07.25.11.37a.19.19,0,0,0,.24.14l.3-.11a.36.36,0,0,1,.43.21.35.35,0,0,1-.12.47l-.28.15a.21.21,0,0,0-.06.28l.21.32a.2.2,0,0,0,.28.06l.25-.19a.39.39,0,0,1,.5.56l-.22.23a.2.2,0,0,0,0,.29l.3.25a.2.2,0,0,0,.29,0l.18-.26a.38.38,0,0,1,.64.39l-.14.28a.2.2,0,0,0,.11.26l.36.15a.2.2,0,0,0,.27-.11l.1-.3c.06-.17.17-.28.27-.25l.17,0,.17,0c.09,0,.15.17.12.34l-.05.31a.2.2,0,0,0,.18.22l.39,0a.2.2,0,0,0,.22-.18s0-.14,0-.32a.39.39,0,0,1,.75,0l0,.31a.2.2,0,0,0,.24.15l.38-.08a.2.2,0,0,0,.16-.24l-.09-.3a.39.39,0,0,1,.71-.26l.13.29a.2.2,0,0,0,.28.07l.34-.19a.2.2,0,0,0,.08-.28l-.17-.27a.39.39,0,0,1,.6-.46l.21.24a.19.19,0,0,0,.28,0l.27-.28a.2.2,0,0,0,0-.29l-.24-.2a.38.38,0,0,1,.44-.61l.27.16a.2.2,0,0,0,.27-.1c.06-.11.13-.23.18-.35a.2.2,0,0,0-.09-.27l-.29-.12a.38.38,0,0,1,.24-.71Z"/><circle class="cls-15" cx="55.94" cy="131.62" r="2.19" transform="translate(-8.89 4.15) rotate(-3.93)"/><path class="cls-13" d="M41.45,130.67a.46.46,0,0,1-.58-.22l-.16-.38a.26.26,0,0,0-.36-.11c-.16.06-.3.15-.45.23a.26.26,0,0,0-.13.35l.21.35a.5.5,0,0,1-.79.57l-.26-.32a.27.27,0,0,0-.37,0c-.13.11-.24.24-.36.35a.25.25,0,0,0,0,.37l.31.27a.5.5,0,0,1-.59.78l-.34-.23a.27.27,0,0,0-.36.11l-.24.44a.25.25,0,0,0,.09.36l.38.17a.5.5,0,0,1-.34.91l-.39-.11a.26.26,0,0,0-.31.21l-.1.49a.26.26,0,0,0,.2.31l.41.05a.5.5,0,0,1-.06,1h-.41a.25.25,0,0,0-.23.29l0,.5a.26.26,0,0,0,.29.24l.4-.07c.22,0,.42,0,.45.16l.05.22.06.22c0,.12-.11.28-.32.35l-.39.12a.26.26,0,0,0-.14.35l.19.46a.25.25,0,0,0,.34.15l.37-.18a.5.5,0,0,1,.5.83l-.33.24a.26.26,0,0,0,0,.37l.32.39a.26.26,0,0,0,.37,0l.3-.29a.5.5,0,0,1,.73.65l-.25.33a.25.25,0,0,0,.08.36l.42.28a.27.27,0,0,0,.37-.08l.2-.36a.5.5,0,0,1,.89.41l-.15.39a.25.25,0,0,0,.19.32l.48.14a.27.27,0,0,0,.33-.18l.08-.4a.5.5,0,0,1,1,.13l0,.41a.25.25,0,0,0,.27.25c.17,0,.34,0,.5,0a.26.26,0,0,0,.26-.27l0-.41a.5.5,0,0,1,1-.16l.1.4a.25.25,0,0,0,.33.15l.48-.15a.27.27,0,0,0,.17-.34l-.16-.38a.5.5,0,0,1,.87-.44l.21.35a.25.25,0,0,0,.36.05c.14-.09.28-.18.41-.29a.26.26,0,0,0,.06-.37l-.26-.32a.5.5,0,0,1,.7-.68l.31.28a.26.26,0,0,0,.36-.06,4.4,4.4,0,0,0,.31-.4.26.26,0,0,0,0-.37l-.34-.23a.5.5,0,0,1,.47-.85l.37.17a.25.25,0,0,0,.33-.16,3.47,3.47,0,0,0,.17-.47.26.26,0,0,0-.15-.34l-.4-.11a.5.5,0,0,1,.2-1l.41.05a.26.26,0,0,0,.27-.25,3.57,3.57,0,0,0,0-.5.26.26,0,0,0-.24-.28h-.41a.5.5,0,0,1-.09-1l.41-.07a.26.26,0,0,0,.18-.32,3.13,3.13,0,0,0-.12-.49.26.26,0,0,0-.31-.2l-.39.13a.5.5,0,0,1-.37-.9l.37-.19a.26.26,0,0,0,.08-.36,3.38,3.38,0,0,0-.26-.43.26.26,0,0,0-.36-.1l-.33.24a.5.5,0,0,1-.62-.75l.29-.28a.26.26,0,0,0,0-.37A3.9,3.9,0,0,0,48,131a.26.26,0,0,0-.37,0l-.25.32a.46.46,0,0,1-.62.06.46.46,0,0,1-.19-.59l.2-.36a.26.26,0,0,0-.13-.35,3.92,3.92,0,0,0-.46-.21.25.25,0,0,0-.35.12l-.14.39a.5.5,0,0,1-.94-.27l.09-.4a.27.27,0,0,0-.23-.3l-.5-.06a.25.25,0,0,0-.3.22l0,.41a.5.5,0,0,1-1,0l0-.41a.26.26,0,0,0-.31-.22l-.49.09a.25.25,0,0,0-.22.29l.1.4A.46.46,0,0,1,41.45,130.67Zm6.41,4.44-3.15.78a1.44,1.44,0,0,0-1.43-.86l-.78-3.15A4.67,4.67,0,0,1,47.85,135.11Zm-3.11,5.83L44,137.8a1.45,1.45,0,0,0,.86-1.43l3.15-.78A4.68,4.68,0,0,1,44.75,140.94Zm-5.84-3.11,3.15-.78a1.44,1.44,0,0,0,1.43.86l.78,3.15A4.68,4.68,0,0,1,38.91,137.84ZM42,132l.78,3.15a1.44,1.44,0,0,0-.86,1.43l-3.15.78A4.67,4.67,0,0,1,42,132Z"/><path class="cls-14" d="M32.41,122.77a.35.35,0,0,1-.45-.17l-.12-.29a.21.21,0,0,0-.27-.09c-.12,0-.23.12-.35.18a.2.2,0,0,0-.09.27l.16.27a.36.36,0,0,1-.13.47.35.35,0,0,1-.48,0l-.2-.24a.21.21,0,0,0-.29,0c-.1.09-.19.18-.28.27a.19.19,0,0,0,0,.28l.24.21a.39.39,0,0,1-.46.6l-.26-.17a.2.2,0,0,0-.28.08l-.18.34A.2.2,0,0,0,29,125l.29.13a.38.38,0,0,1-.26.71l-.3-.09a.2.2,0,0,0-.24.16l-.08.38a.2.2,0,0,0,.16.24l.31,0a.39.39,0,0,1,0,.75h-.32a.2.2,0,0,0-.18.22l0,.39a.2.2,0,0,0,.22.18l.31-.05c.17,0,.32,0,.34.12l0,.17,0,.17c0,.1-.08.21-.25.27l-.3.1a.2.2,0,0,0-.11.27l.15.36a.2.2,0,0,0,.26.11l.28-.14a.39.39,0,0,1,.39.65l-.26.18a.2.2,0,0,0,0,.29l.25.3a.2.2,0,0,0,.29,0l.23-.22a.38.38,0,0,1,.56.5l-.19.25a.2.2,0,0,0,.06.28L31,132a.2.2,0,0,0,.28-.06l.15-.28a.36.36,0,0,1,.47-.12.36.36,0,0,1,.21.43l-.11.3a.19.19,0,0,0,.14.24l.37.11a.2.2,0,0,0,.25-.14l.06-.31a.39.39,0,0,1,.75.1l0,.32a.2.2,0,0,0,.21.19c.13,0,.26,0,.39,0a.2.2,0,0,0,.2-.21l0-.31a.38.38,0,0,1,.74-.12l.08.31a.19.19,0,0,0,.26.12l.37-.12a.21.21,0,0,0,.13-.26l-.12-.29a.39.39,0,0,1,.67-.34l.16.27a.19.19,0,0,0,.28,0l.32-.22a.2.2,0,0,0,0-.29l-.2-.24a.35.35,0,0,1,.06-.48.36.36,0,0,1,.48,0l.24.21a.2.2,0,0,0,.28,0,3.54,3.54,0,0,0,.24-.31.2.2,0,0,0,0-.29l-.26-.17a.38.38,0,0,1,.36-.66l.29.13a.2.2,0,0,0,.26-.12,2.86,2.86,0,0,0,.14-.37.2.2,0,0,0-.11-.26l-.31-.09a.35.35,0,0,1-.22-.43.36.36,0,0,1,.37-.31l.31,0a.2.2,0,0,0,.21-.2,2.55,2.55,0,0,0,0-.39.2.2,0,0,0-.19-.22h-.32a.38.38,0,0,1-.07-.75l.31-.05a.2.2,0,0,0,.14-.25,2.47,2.47,0,0,0-.09-.38.2.2,0,0,0-.24-.15l-.3.1a.39.39,0,0,1-.29-.7l.28-.14a.2.2,0,0,0,.06-.28,2.61,2.61,0,0,0-.2-.33.2.2,0,0,0-.28-.07l-.26.18a.39.39,0,0,1-.48-.58l.23-.22a.2.2,0,0,0,0-.29,2.43,2.43,0,0,0-.29-.26.2.2,0,0,0-.29,0l-.19.25a.39.39,0,0,1-.63-.41l.15-.28a.2.2,0,0,0-.1-.27,3.53,3.53,0,0,0-.35-.16.19.19,0,0,0-.27.09l-.11.3a.39.39,0,0,1-.72-.21L35,122a.2.2,0,0,0-.18-.23l-.39,0a.19.19,0,0,0-.23.17l0,.32a.39.39,0,0,1-.75,0c0-.17,0-.31,0-.31a.21.21,0,0,0-.24-.17l-.38.07a.19.19,0,0,0-.17.22l.08.31A.36.36,0,0,1,32.41,122.77Z"/><circle class="cls-15" cx="33.9" cy="127.25" r="2.19" transform="translate(-95.38 152.32) rotate(-86.06)"/><path class="cls-7" d="M16.43,177.28a.35.35,0,0,1-.45-.17l-.12-.29a.2.2,0,0,0-.27-.09c-.12,0-.23.12-.35.18a.19.19,0,0,0-.09.27l.16.27a.39.39,0,0,1-.61.44l-.2-.24a.2.2,0,0,0-.29,0c-.1.08-.19.18-.28.27a.19.19,0,0,0,0,.28l.24.21a.39.39,0,0,1-.46.6l-.26-.17a.2.2,0,0,0-.28.08l-.18.34a.2.2,0,0,0,.07.28l.29.13a.36.36,0,0,1,.15.46.36.36,0,0,1-.42.25l-.3-.09a.2.2,0,0,0-.24.16l-.08.38a.2.2,0,0,0,.16.24l.31,0a.39.39,0,0,1,0,.75h-.32a.19.19,0,0,0-.18.22l0,.39a.2.2,0,0,0,.22.19l.31-.05c.17,0,.32,0,.34.12s0,.11,0,.17l0,.17c0,.1-.08.21-.25.27l-.3.1a.2.2,0,0,0-.11.27l.15.36a.19.19,0,0,0,.26.11l.28-.14a.38.38,0,0,1,.39.64l-.26.18a.2.2,0,0,0,0,.29l.25.3a.2.2,0,0,0,.29,0l.23-.22a.39.39,0,0,1,.56.5l-.19.25a.2.2,0,0,0,.06.28l.32.21a.2.2,0,0,0,.28-.06l.15-.28a.35.35,0,0,1,.47-.12.36.36,0,0,1,.21.43l-.11.3a.19.19,0,0,0,.14.25l.37.11a.2.2,0,0,0,.25-.14l.06-.31a.39.39,0,0,1,.75.1l0,.32a.2.2,0,0,0,.21.19c.13,0,.26,0,.39,0a.2.2,0,0,0,.2-.21l0-.31a.38.38,0,0,1,.74-.12l.08.31a.19.19,0,0,0,.26.12l.37-.12a.2.2,0,0,0,.13-.26l-.12-.29a.39.39,0,0,1,.67-.34l.16.27a.19.19,0,0,0,.28,0l.32-.22a.2.2,0,0,0,0-.28l-.2-.24a.39.39,0,0,1,.54-.52l.24.21a.19.19,0,0,0,.28,0,3.19,3.19,0,0,0,.24-.31.2.2,0,0,0,0-.28l-.26-.17A.36.36,0,0,1,22,184a.36.36,0,0,1,.45-.18l.29.13a.2.2,0,0,0,.26-.12,2.65,2.65,0,0,0,.14-.36.2.2,0,0,0-.11-.26l-.31-.09a.35.35,0,0,1-.22-.43.36.36,0,0,1,.37-.31l.31,0a.2.2,0,0,0,.21-.19,2.59,2.59,0,0,0,0-.39.2.2,0,0,0-.19-.22h-.32a.39.39,0,0,1-.07-.75l.31-.05a.2.2,0,0,0,.14-.25,2.47,2.47,0,0,0-.09-.38.2.2,0,0,0-.24-.15l-.3.1a.38.38,0,0,1-.29-.69l.28-.14a.2.2,0,0,0,.06-.28,2.75,2.75,0,0,0-.2-.33.2.2,0,0,0-.28-.07l-.26.18a.38.38,0,0,1-.48-.58l.23-.22a.2.2,0,0,0,0-.29,2.75,2.75,0,0,0-.29-.26.2.2,0,0,0-.29,0l-.19.25a.38.38,0,0,1-.63-.41l.15-.28a.2.2,0,0,0-.1-.27,3,3,0,0,0-.35-.16.19.19,0,0,0-.27.09l-.11.3a.36.36,0,0,1-.44.19.36.36,0,0,1-.28-.39l.06-.31a.2.2,0,0,0-.18-.23l-.39,0a.2.2,0,0,0-.23.17l0,.32a.39.39,0,0,1-.75,0c0-.18,0-.32,0-.32a.2.2,0,0,0-.24-.17l-.38.07a.2.2,0,0,0-.17.23l.08.31A.36.36,0,0,1,16.43,177.28Z"/><circle class="cls-14" cx="17.92" cy="181.76" r="2.19" transform="matrix(0.07, -1, 1, 0.07, -164.65, 187.15)"/><path class="cls-7" d="M29.83,177.28a.35.35,0,0,1-.45-.17l-.12-.29a.2.2,0,0,0-.27-.09c-.12,0-.23.12-.35.18a.19.19,0,0,0-.09.27l.16.27a.39.39,0,0,1-.61.44l-.2-.24a.2.2,0,0,0-.29,0c-.1.08-.19.18-.28.27a.19.19,0,0,0,0,.28l.24.21a.39.39,0,0,1-.46.6l-.26-.17a.2.2,0,0,0-.28.08l-.18.34a.2.2,0,0,0,.07.28l.29.13a.36.36,0,0,1,.15.46.36.36,0,0,1-.42.25l-.3-.09a.2.2,0,0,0-.24.16l-.08.38a.2.2,0,0,0,.16.24l.31,0a.39.39,0,0,1,0,.75H26a.19.19,0,0,0-.18.22l0,.39a.2.2,0,0,0,.22.19l.31-.05c.17,0,.32,0,.34.12l0,.17,0,.17c0,.1-.08.21-.25.27l-.3.1a.2.2,0,0,0-.11.27l.15.36a.19.19,0,0,0,.26.11l.28-.14a.38.38,0,0,1,.39.64l-.26.18a.2.2,0,0,0,0,.29l.25.3a.2.2,0,0,0,.29,0l.23-.22a.39.39,0,0,1,.56.5L28,186a.2.2,0,0,0,.06.28l.32.21a.2.2,0,0,0,.28-.06l.15-.28a.35.35,0,0,1,.47-.12.36.36,0,0,1,.21.43l-.11.3a.19.19,0,0,0,.14.25l.37.11a.21.21,0,0,0,.25-.14l.06-.31a.39.39,0,0,1,.75.1l0,.32a.2.2,0,0,0,.21.19c.13,0,.26,0,.39,0a.2.2,0,0,0,.2-.21l0-.31a.38.38,0,0,1,.74-.12l.08.31a.19.19,0,0,0,.26.12l.37-.12a.21.21,0,0,0,.13-.26l-.12-.29a.39.39,0,0,1,.67-.34l.16.27a.19.19,0,0,0,.28,0l.32-.22a.2.2,0,0,0,0-.28l-.2-.24a.39.39,0,0,1,.54-.52l.24.21a.19.19,0,0,0,.28,0,3.26,3.26,0,0,0,.24-.31.2.2,0,0,0,0-.28l-.26-.17a.36.36,0,0,1-.08-.47.36.36,0,0,1,.45-.18l.29.13a.2.2,0,0,0,.26-.12,2.69,2.69,0,0,0,.14-.36.2.2,0,0,0-.11-.26l-.31-.09a.35.35,0,0,1-.22-.43.36.36,0,0,1,.37-.31l.31,0a.2.2,0,0,0,.21-.19,2.67,2.67,0,0,0,0-.39.2.2,0,0,0-.19-.22h-.32a.39.39,0,0,1-.07-.75l.31-.05a.2.2,0,0,0,.14-.25,2.43,2.43,0,0,0-.09-.38.2.2,0,0,0-.24-.15l-.3.1a.38.38,0,0,1-.29-.69l.28-.14a.2.2,0,0,0,.06-.28,2.71,2.71,0,0,0-.2-.33.2.2,0,0,0-.28-.07l-.26.18a.38.38,0,0,1-.48-.58l.23-.22a.2.2,0,0,0,0-.29,2.77,2.77,0,0,0-.29-.26.2.2,0,0,0-.29,0l-.19.25a.38.38,0,0,1-.63-.41l.15-.28a.2.2,0,0,0-.1-.27,3,3,0,0,0-.35-.16.19.19,0,0,0-.27.09L33,177a.36.36,0,0,1-.44.19.36.36,0,0,1-.28-.39l.06-.31a.2.2,0,0,0-.18-.23l-.39,0a.2.2,0,0,0-.23.17l0,.32a.39.39,0,0,1-.75,0c0-.18,0-.32,0-.32a.2.2,0,0,0-.24-.17l-.38.07a.2.2,0,0,0-.17.23l.08.31A.36.36,0,0,1,29.83,177.28Z"/><circle class="cls-14" cx="31.31" cy="181.76" r="2.19" transform="translate(-152.17 200.5) rotate(-86.06)"/><path class="cls-7" d="M43.22,177.28a.35.35,0,0,1-.45-.17l-.12-.29a.2.2,0,0,0-.27-.09c-.12,0-.23.12-.35.18a.19.19,0,0,0-.09.27l.16.27a.39.39,0,0,1-.61.44l-.2-.24a.2.2,0,0,0-.29,0c-.1.08-.19.18-.28.27a.19.19,0,0,0,0,.28l.24.21a.39.39,0,0,1-.46.6l-.26-.17a.2.2,0,0,0-.28.08l-.18.34a.2.2,0,0,0,.07.28l.29.13a.36.36,0,0,1,.15.46.36.36,0,0,1-.42.25l-.3-.09a.2.2,0,0,0-.24.16l-.08.38a.2.2,0,0,0,.16.24l.31,0a.39.39,0,0,1,0,.75h-.32a.19.19,0,0,0-.18.22l0,.39a.2.2,0,0,0,.22.19l.31-.05c.17,0,.32,0,.34.12s0,.11,0,.17l0,.17c0,.1-.08.21-.25.27l-.3.1a.2.2,0,0,0-.11.27l.15.36a.19.19,0,0,0,.26.11l.28-.14a.38.38,0,0,1,.39.64l-.26.18a.2.2,0,0,0,0,.29l.25.3a.2.2,0,0,0,.29,0l.23-.22a.39.39,0,0,1,.56.5l-.19.25a.2.2,0,0,0,.06.28l.32.21a.2.2,0,0,0,.28-.06l.15-.28a.35.35,0,0,1,.47-.12.36.36,0,0,1,.21.43l-.11.3A.19.19,0,0,0,43,187l.37.11a.2.2,0,0,0,.25-.14l.06-.31a.39.39,0,0,1,.75.1l0,.32a.2.2,0,0,0,.21.19c.13,0,.26,0,.39,0a.2.2,0,0,0,.2-.21l0-.31a.38.38,0,0,1,.74-.12L46,187a.19.19,0,0,0,.26.12l.37-.12a.21.21,0,0,0,.13-.26l-.12-.29a.39.39,0,0,1,.67-.34l.16.27a.19.19,0,0,0,.28,0l.32-.22a.2.2,0,0,0,0-.28l-.2-.24a.39.39,0,0,1,.54-.52l.24.21a.19.19,0,0,0,.28,0,3.31,3.31,0,0,0,.24-.31.2.2,0,0,0,0-.28l-.26-.17a.36.36,0,0,1-.08-.47.36.36,0,0,1,.45-.18l.29.13a.2.2,0,0,0,.26-.12,2.7,2.7,0,0,0,.14-.36.2.2,0,0,0-.11-.26l-.31-.09a.35.35,0,0,1-.22-.43.36.36,0,0,1,.37-.31l.31,0a.2.2,0,0,0,.21-.19,2.58,2.58,0,0,0,0-.39.2.2,0,0,0-.19-.22h-.32a.39.39,0,0,1-.07-.75l.31-.05a.2.2,0,0,0,.14-.25,2.45,2.45,0,0,0-.09-.38.2.2,0,0,0-.24-.15l-.3.1a.38.38,0,0,1-.29-.69l.28-.14a.2.2,0,0,0,.06-.28,2.75,2.75,0,0,0-.2-.33.2.2,0,0,0-.28-.07l-.26.18a.38.38,0,0,1-.48-.58l.23-.22a.2.2,0,0,0,0-.29,2.77,2.77,0,0,0-.29-.26.2.2,0,0,0-.29,0l-.19.25a.38.38,0,0,1-.63-.41l.15-.28a.2.2,0,0,0-.1-.27,3,3,0,0,0-.35-.16.19.19,0,0,0-.27.09l-.11.3a.36.36,0,0,1-.44.19.36.36,0,0,1-.28-.39l.06-.31a.2.2,0,0,0-.18-.23l-.39,0a.2.2,0,0,0-.23.17l0,.32a.39.39,0,0,1-.75,0c0-.18,0-.32,0-.32a.2.2,0,0,0-.24-.17l-.38.07a.2.2,0,0,0-.17.23l.08.31A.36.36,0,0,1,43.22,177.28Z"/><circle class="cls-14" cx="44.71" cy="181.76" r="2.19" transform="translate(-139.7 213.87) rotate(-86.06)"/><path class="cls-7" d="M56.62,177.28a.35.35,0,0,1-.45-.17l-.12-.29a.2.2,0,0,0-.27-.09c-.12,0-.23.12-.35.18a.19.19,0,0,0-.09.27l.16.27a.39.39,0,0,1-.61.44l-.2-.24a.2.2,0,0,0-.29,0c-.1.08-.19.18-.28.27a.19.19,0,0,0,0,.28l.24.21a.39.39,0,0,1-.46.6l-.26-.17a.2.2,0,0,0-.28.08l-.18.34a.2.2,0,0,0,.07.28l.29.13a.36.36,0,0,1,.15.46.36.36,0,0,1-.42.25l-.3-.09a.2.2,0,0,0-.24.16l-.08.38a.2.2,0,0,0,.16.24l.31,0a.39.39,0,0,1,0,.75h-.32a.19.19,0,0,0-.18.22l0,.39a.2.2,0,0,0,.22.19l.31-.05c.17,0,.32,0,.34.12s0,.11,0,.17l0,.17c0,.1-.08.21-.25.27l-.3.1a.2.2,0,0,0-.11.27l.15.36a.19.19,0,0,0,.26.11l.28-.14a.38.38,0,0,1,.39.64l-.26.18a.2.2,0,0,0,0,.29l.25.3a.2.2,0,0,0,.29,0l.23-.22a.39.39,0,0,1,.56.5l-.19.25a.2.2,0,0,0,.06.28l.32.21a.2.2,0,0,0,.28-.06l.15-.28a.35.35,0,0,1,.47-.12.36.36,0,0,1,.21.43l-.11.3a.19.19,0,0,0,.14.25l.37.11A.2.2,0,0,0,57,187l.06-.31a.39.39,0,0,1,.75.1l0,.32a.2.2,0,0,0,.21.19c.13,0,.26,0,.39,0a.2.2,0,0,0,.2-.21l0-.31a.38.38,0,0,1,.74-.12l.08.31a.19.19,0,0,0,.26.12L60,187a.2.2,0,0,0,.13-.26l-.12-.29a.39.39,0,0,1,.67-.34l.16.27a.19.19,0,0,0,.28,0l.32-.22a.2.2,0,0,0,0-.28l-.2-.24a.39.39,0,0,1,.54-.52l.24.21a.19.19,0,0,0,.28,0,3.2,3.2,0,0,0,.24-.31.2.2,0,0,0,0-.28l-.26-.17a.36.36,0,0,1-.08-.47.36.36,0,0,1,.45-.18L63,184a.2.2,0,0,0,.26-.12,2.65,2.65,0,0,0,.14-.36.2.2,0,0,0-.11-.26l-.31-.09a.35.35,0,0,1-.22-.43.36.36,0,0,1,.37-.31l.31,0a.2.2,0,0,0,.21-.19,2.59,2.59,0,0,0,0-.39.2.2,0,0,0-.19-.22h-.32a.39.39,0,0,1-.07-.75l.31-.05a.2.2,0,0,0,.14-.25,2.47,2.47,0,0,0-.09-.38.2.2,0,0,0-.24-.15l-.3.1a.38.38,0,0,1-.29-.69l.28-.14a.2.2,0,0,0,.06-.28,2.75,2.75,0,0,0-.2-.33.2.2,0,0,0-.28-.07l-.26.18a.38.38,0,0,1-.48-.58l.23-.22a.2.2,0,0,0,0-.29,2.74,2.74,0,0,0-.29-.26.2.2,0,0,0-.29,0l-.19.25a.38.38,0,0,1-.63-.41l.15-.28a.2.2,0,0,0-.1-.27,3,3,0,0,0-.35-.16.19.19,0,0,0-.27.09l-.11.3a.39.39,0,0,1-.72-.21l.06-.31a.2.2,0,0,0-.18-.23l-.39,0a.2.2,0,0,0-.23.17l0,.32a.39.39,0,0,1-.75,0c0-.18,0-.32,0-.32a.2.2,0,0,0-.24-.17l-.38.07a.2.2,0,0,0-.17.23l.08.31A.36.36,0,0,1,56.62,177.28Z"/><circle class="cls-14" cx="58.11" cy="181.76" r="2.19" transform="matrix(0.07, -1, 1, 0.07, -127.22, 227.24)"/><path class="cls-7" d="M70,177.28a.35.35,0,0,1-.45-.17l-.12-.29a.2.2,0,0,0-.27-.09c-.12,0-.23.12-.35.18a.19.19,0,0,0-.09.27l.16.27a.38.38,0,0,1-.61.44l-.2-.24a.2.2,0,0,0-.29,0c-.1.08-.19.18-.28.27a.19.19,0,0,0,0,.28l.24.21a.39.39,0,0,1-.46.6l-.26-.17a.2.2,0,0,0-.28.08l-.18.34a.2.2,0,0,0,.07.28l.29.13a.36.36,0,0,1,.15.46.36.36,0,0,1-.42.25l-.3-.09a.2.2,0,0,0-.24.16l-.08.38a.2.2,0,0,0,.16.24l.31,0a.39.39,0,0,1,0,.75h-.32a.19.19,0,0,0-.18.22l0,.39a.2.2,0,0,0,.22.19l.31-.05c.17,0,.32,0,.34.12l0,.17,0,.17c0,.1-.08.21-.25.27l-.3.1a.2.2,0,0,0-.11.27l.15.36a.19.19,0,0,0,.26.11L67,184a.38.38,0,0,1,.39.64l-.26.18a.2.2,0,0,0,0,.29l.25.3a.2.2,0,0,0,.29,0l.23-.22a.39.39,0,0,1,.56.5l-.19.25a.2.2,0,0,0,.06.28l.32.21a.2.2,0,0,0,.28-.06l.15-.28a.35.35,0,0,1,.47-.12.36.36,0,0,1,.21.43l-.11.3a.19.19,0,0,0,.14.25l.37.11a.2.2,0,0,0,.25-.14l.06-.31a.39.39,0,0,1,.75.1l0,.32a.2.2,0,0,0,.21.19c.13,0,.26,0,.39,0a.2.2,0,0,0,.2-.21l0-.31a.38.38,0,0,1,.74-.12l.08.31a.19.19,0,0,0,.26.12l.37-.12a.21.21,0,0,0,.13-.26l-.12-.29a.39.39,0,0,1,.67-.34l.16.27a.19.19,0,0,0,.28,0l.32-.22a.2.2,0,0,0,0-.28l-.2-.24a.39.39,0,0,1,.54-.52l.24.21a.19.19,0,0,0,.28,0A3.31,3.31,0,0,0,76,185a.2.2,0,0,0,0-.28l-.26-.17a.38.38,0,0,1,.36-.66l.29.13a.2.2,0,0,0,.26-.12,2.7,2.7,0,0,0,.14-.36.2.2,0,0,0-.11-.26l-.31-.09a.35.35,0,0,1-.22-.43.36.36,0,0,1,.37-.31l.31,0a.2.2,0,0,0,.21-.19,2.62,2.62,0,0,0,0-.39.2.2,0,0,0-.19-.22h-.32a.39.39,0,0,1-.07-.75l.31-.05a.2.2,0,0,0,.14-.25,2.44,2.44,0,0,0-.09-.38.2.2,0,0,0-.24-.15l-.3.1a.38.38,0,0,1-.29-.69l.28-.14a.2.2,0,0,0,.06-.28,2.68,2.68,0,0,0-.2-.33.2.2,0,0,0-.28-.07l-.26.18a.38.38,0,0,1-.48-.58l.23-.22a.2.2,0,0,0,0-.29,2.76,2.76,0,0,0-.29-.26.2.2,0,0,0-.29,0l-.19.25a.38.38,0,0,1-.63-.41l.15-.28a.2.2,0,0,0-.1-.27,3,3,0,0,0-.35-.16.19.19,0,0,0-.27.09l-.11.3a.36.36,0,0,1-.44.19.36.36,0,0,1-.28-.39l.06-.31a.2.2,0,0,0-.18-.23l-.39,0a.2.2,0,0,0-.23.17l0,.32a.39.39,0,0,1-.75,0c0-.18,0-.32,0-.32a.2.2,0,0,0-.24-.17l-.38.07a.2.2,0,0,0-.17.23l.08.31A.36.36,0,0,1,70,177.28Z"/><circle class="cls-14" cx="71.5" cy="181.76" r="2.19" transform="translate(-114.75 240.59) rotate(-86.06)"/></g></g></svg>